<svg width="375" height="454" viewBox="0 0 375 454" fill="none" xmlns="http://www.w3.org/2000/svg">
<path d="M-0.254219 412.361C-6.85265 405.996 -39.0383 374.947 -34.6891 345.232C-30.1302 314.085 10.1706 314.452 18.0259 288.109C31.8496 241.752 -82.303 204.897 -84.4283 141.759C-87.0464 63.9767 81.1335 -30.6563 157.04 9.58547C186.924 25.4281 186.053 53.4531 225.484 70.0434C268.903 88.3118 292.363 63.7589 341.117 72.545C398.522 82.8906 462.244 134.275 464.402 185.122C467.036 247.181 376.652 277.55 387.88 335.642C394.257 368.637 425.749 370.909 424.441 391.93C420.263 459.055 97.0334 470.15 27.7816 432.878C12.4731 424.639 -0.254219 412.361 -0.254219 412.361Z" fill="#00AD73"/>
<path d="M191.75 453.79C287.28 453.79 364.722 444.606 364.722 433.278C364.722 421.95 287.28 412.766 191.75 412.766C96.2197 412.766 18.7772 421.95 18.7772 433.278C18.7772 444.606 96.2197 453.79 191.75 453.79Z" fill="#FFBA00"/>
<path opacity="0.5" d="M66.7441 256.799C68.3472 256.799 69.6469 255.5 69.6469 253.896C69.6469 252.293 68.3472 250.994 66.7441 250.994C65.1409 250.994 63.8413 252.293 63.8413 253.896C63.8413 255.5 65.1409 256.799 66.7441 256.799Z" fill="#402893"/>
<path opacity="0.5" d="M21.8503 353.94C23.4534 353.94 24.7531 352.64 24.7531 351.037C24.7531 349.434 23.4534 348.134 21.8503 348.134C20.2471 348.134 18.9475 349.434 18.9475 351.037C18.9475 352.64 20.2471 353.94 21.8503 353.94Z" fill="#402893"/>
<path opacity="0.5" d="M91.1254 358.197C92.7286 358.197 94.0282 356.898 94.0282 355.294C94.0282 353.691 92.7286 352.392 91.1254 352.392C89.5223 352.392 88.2227 353.691 88.2227 355.294C88.2227 356.898 89.5223 358.197 91.1254 358.197Z" fill="#402893"/>
<path opacity="0.5" d="M69.4528 301.306C71.056 301.306 72.3556 300.006 72.3556 298.403C72.3556 296.8 71.056 295.5 69.4528 295.5C67.8497 295.5 66.55 296.8 66.55 298.403C66.55 300.006 67.8497 301.306 69.4528 301.306Z" fill="#402893"/>
<path opacity="0.5" d="M42.7491 106.637C44.3523 106.637 45.6519 105.338 45.6519 103.735C45.6519 102.131 44.3523 100.832 42.7491 100.832C41.1459 100.832 39.8463 102.131 39.8463 103.735C39.8463 105.338 41.1459 106.637 42.7491 106.637Z" fill="#402893"/>
<path opacity="0.5" d="M310.563 122.118C312.166 122.118 313.466 120.818 313.466 119.215C313.466 117.612 312.166 116.312 310.563 116.312C308.96 116.312 307.661 117.612 307.661 119.215C307.661 120.818 308.96 122.118 310.563 122.118Z" fill="#402893"/>
<path opacity="0.5" d="M111.25 45.1021C112.853 45.1021 114.153 43.8024 114.153 42.1993C114.153 40.5961 112.853 39.2965 111.25 39.2965C109.647 39.2965 108.348 40.5961 108.348 42.1993C108.348 43.8024 109.647 45.1021 111.25 45.1021Z" fill="#402893"/>
<path opacity="0.5" d="M331.85 298.597C333.453 298.597 334.752 297.297 334.752 295.694C334.752 294.091 333.453 292.791 331.85 292.791C330.246 292.791 328.947 294.091 328.947 295.694C328.947 297.297 330.246 298.597 331.85 298.597Z" fill="#402893"/>
<path opacity="0.5" d="M299.727 315.625C301.33 315.625 302.629 314.326 302.629 312.723C302.629 311.119 301.33 309.82 299.727 309.82C298.123 309.82 296.824 311.119 296.824 312.723C296.824 314.326 298.123 315.625 299.727 315.625Z" fill="#402893"/>
<path opacity="0.5" d="M339.202 369.421C340.806 369.421 342.105 368.121 342.105 366.518C342.105 364.915 340.806 363.615 339.202 363.615C337.599 363.615 336.3 364.915 336.3 366.518C336.3 368.121 337.599 369.421 339.202 369.421Z" fill="#402893"/>
<path opacity="0.5" d="M283.086 254.09C284.689 254.09 285.988 252.79 285.988 251.187C285.988 249.584 284.689 248.284 283.086 248.284C281.482 248.284 280.183 249.584 280.183 251.187C280.183 252.79 281.482 254.09 283.086 254.09Z" fill="#402893"/>
<path opacity="0.5" d="M364.745 214.228C366.349 214.228 367.648 212.928 367.648 211.325C367.648 209.722 366.349 208.422 364.745 208.422C363.142 208.422 361.843 209.722 361.843 211.325C361.843 212.928 363.142 214.228 364.745 214.228Z" fill="#402893"/>
<path d="M191.246 237.1C216.402 237.1 236.795 223.613 236.795 206.976C236.795 190.339 216.402 176.852 191.246 176.852C166.089 176.852 145.696 190.339 145.696 206.976C145.696 223.613 166.089 237.1 191.246 237.1Z" fill="#FFBA00"/>
<path d="M342.366 170.103C312.719 195.741 254.124 218.101 194.247 218.101C130.322 218.101 74.7541 198.674 46.4874 170.103H342.366Z" fill="#5842A3"/>
<path d="M258.87 140.739C245.05 161.832 220.558 175.854 192.645 175.854C162.74 175.854 136.755 159.756 123.624 136.114C126.953 131.036 130.898 126.363 135.364 122.208C138.656 119.134 142.235 116.338 146.053 113.857C158.544 105.74 173.62 101 189.849 101C206.078 101 221.154 105.74 233.645 113.857C237.463 116.334 241.038 119.13 244.335 122.208C250.125 127.6 255.044 133.852 258.87 140.739Z" fill="#5842A3"/>
<path d="M342.365 170.103H46.4872C46.382 169.998 46.2797 169.895 46.177 169.79C75.8231 144.149 128.369 127.104 188.246 127.104C252.404 127.104 314.194 141.359 342.365 170.103Z" fill="#402893"/>
<path d="M163.623 210.345C163.533 210.345 163.441 210.333 163.351 210.307C132.781 201.609 100.728 178.014 100.408 177.776C99.9674 177.449 99.8747 176.826 100.202 176.385C100.529 175.944 101.151 175.852 101.592 176.178C101.91 176.413 133.679 199.796 163.895 208.394C164.423 208.545 164.729 209.095 164.579 209.623C164.455 210.06 164.056 210.345 163.623 210.345Z" fill="#FFBA00"/>
<path d="M215.244 210.345C214.811 210.345 214.413 210.061 214.289 209.623C214.139 209.095 214.444 208.545 214.973 208.395C245.198 199.794 276.958 176.414 277.276 176.179C277.717 175.852 278.339 175.944 278.667 176.385C278.993 176.827 278.901 177.449 278.459 177.776C278.139 178.014 246.087 201.609 215.517 210.308C215.426 210.333 215.335 210.345 215.244 210.345Z" fill="#FFBA00"/>
<path d="M189.497 209.72C188.947 209.72 188.502 209.275 188.502 208.726V177.477C188.502 176.928 188.947 176.483 189.497 176.483C190.046 176.483 190.491 176.928 190.491 177.477V208.726C190.491 209.275 190.046 209.72 189.497 209.72Z" fill="#FFBA00"/>
<path d="M209.144 113.856H172.16V122.207H209.144V113.856Z" fill="#FFBA00"/>
<path d="M150.686 113.856V122.207H135.364C138.657 119.133 142.236 116.338 146.054 113.856H150.686Z" fill="#FFBA00"/>
<path d="M244.334 122.208H230.618V113.857H233.645C237.462 116.334 241.037 119.13 244.334 122.208Z" fill="#FFBA00"/>
<path opacity="0.5" d="M274 431H108L156.683 218H225.716L274 431Z" fill="#FFBE55"/>
<path d="M171.934 353.97C171.934 353.97 164.338 373.177 166.569 373.976C168.799 374.774 175.439 355.225 175.439 355.225L171.934 353.97Z" fill="#5842A3"/>
<path d="M200.837 357.365C200.837 357.365 200.16 378.009 202.529 378.009C204.898 378.009 204.56 357.365 204.56 357.365H200.837Z" fill="#5842A3"/>
<path d="M166.656 338.075C166.656 338.075 167.671 329.953 179.855 333.675C179.855 333.675 189.331 327.245 197.115 332.66C197.115 332.66 203.545 329.139 213.359 336.145C213.359 336.145 222.496 336.044 223.173 345.859C223.173 345.859 225.542 350.935 220.127 355.673C220.127 355.673 215.389 364.134 207.944 361.765C207.944 361.765 200.837 366.841 192.038 362.103C192.038 362.103 176.471 366.164 174.44 360.411C174.44 360.411 167.672 359.057 166.995 352.627C166.994 352.627 157.18 343.151 166.656 338.075Z" fill="#F7F7F7"/>
<path d="M179.087 357.845C179.087 357.845 182.043 378.288 184.375 377.872C186.707 377.456 182.752 357.192 182.752 357.192L179.087 357.845Z" fill="#5842A3"/>
<path d="M208.546 358.445C208.546 358.445 214.326 378.275 216.577 377.538C218.829 376.801 212.083 357.287 212.083 357.287L208.546 358.445Z" fill="#5842A3"/>
<path d="M171.394 349.581C169.025 351.273 147.366 347.551 151.089 338.751C151.799 337.073 153.038 336.108 154.578 335.648C153.881 334.535 153.251 333.205 153.796 332.66C154.493 331.963 155.989 333.98 156.855 335.31C158.036 335.279 159.302 335.428 160.591 335.696C161.661 334.728 163.346 333.462 164.625 333.675C165.786 333.868 164.625 335.276 163.42 336.447C168.48 338.054 173.086 340.782 173.086 340.782C173.086 340.782 173.763 347.889 171.394 349.581Z" fill="#5842A3"/>
</svg>
