<svg width="375" height="465" viewBox="0 0 375 465" fill="none" xmlns="http://www.w3.org/2000/svg">
<path d="M305.03 69.6337C317.508 79.2246 392.613 138.932 397.024 238.658C399.901 303.781 370.87 387.553 315.503 413.33C277.776 430.902 252.632 399.449 174.117 401.868C115.367 403.68 109.572 426.802 75.4289 420.224C17.8948 409.147 -33.9309 339.918 -34.5282 270.177C-35.155 197.858 19.4876 148.757 23.9952 144.831C57.0649 116.015 79.2217 122.48 122.806 82.996C155.113 53.7199 154.84 39.3847 175.722 30.2194C198.327 20.3009 236.682 20.4092 305.03 69.6337Z" fill="#FFBA00"/>
<path d="M158.704 107.734C157.954 107.734 157.22 107.48 156.595 107.003C155.971 106.526 155.485 105.847 155.197 105.054C154.91 104.261 154.835 103.388 154.981 102.545C155.128 101.703 155.489 100.929 156.02 100.322C156.551 99.7148 157.227 99.3013 157.964 99.1338C158.7 98.9662 159.463 99.0522 160.157 99.3809C160.851 99.7095 161.444 100.266 161.861 100.98C162.278 101.694 162.5 102.534 162.5 103.392C162.5 104.544 162.101 105.648 161.389 106.463C160.677 107.277 159.711 107.734 158.704 107.734Z" fill="#5842A3"/>
<path d="M69.2791 377.182C68.529 377.182 67.7958 376.927 67.1721 376.45C66.5484 375.974 66.0623 375.296 65.7752 374.504C65.4882 373.711 65.4131 372.839 65.5594 371.997C65.7058 371.156 66.067 370.383 66.5974 369.776C67.1278 369.17 67.8035 368.756 68.5392 368.589C69.2749 368.422 70.0374 368.508 70.7304 368.836C71.4234 369.164 72.0158 369.72 72.4325 370.434C72.8492 371.147 73.0717 371.986 73.0717 372.844C73.0717 373.413 72.9736 373.977 72.783 374.504C72.5924 375.03 72.313 375.508 71.9609 375.911C71.6087 376.314 71.1906 376.633 70.7304 376.851C70.2703 377.069 69.7772 377.182 69.2791 377.182Z" fill="#5842A3"/>
<path d="M342.501 301.238C341.75 301.239 341.015 300.985 340.39 300.508C339.766 300.032 339.279 299.354 338.991 298.56C338.703 297.766 338.628 296.893 338.774 296.05C338.92 295.208 339.282 294.434 339.813 293.826C340.344 293.219 341.021 292.805 341.758 292.638C342.494 292.47 343.258 292.557 343.952 292.886C344.645 293.215 345.238 293.772 345.655 294.487C346.072 295.201 346.294 296.041 346.293 296.901C346.293 298.051 345.894 299.154 345.182 299.968C344.471 300.781 343.507 301.238 342.501 301.238Z" fill="#5842A3"/>
<path d="M109.225 52.9777C108.474 52.9777 107.74 52.723 107.116 52.2457C106.491 51.7684 106.005 51.09 105.718 50.2964C105.43 49.5027 105.355 48.6295 105.502 47.7871C105.649 46.9447 106.011 46.171 106.542 45.5639C107.073 44.9568 107.75 44.5436 108.487 44.3765C109.223 44.2094 109.987 44.296 110.68 44.6252C111.374 44.9545 111.966 45.5117 112.383 46.2263C112.8 46.9408 113.022 47.7807 113.021 48.6397C113.021 49.2097 112.923 49.7742 112.732 50.3007C112.541 50.8273 112.262 51.3057 111.909 51.7086C111.557 52.1115 111.138 52.4309 110.678 52.6487C110.217 52.8665 109.723 52.9783 109.225 52.9777Z" fill="#5842A3"/>
<path d="M169.725 32.2185C169.57 32.2185 169.42 32.1662 169.292 32.0682C169.163 31.9702 169.063 31.8309 169.004 31.6679C168.945 31.5049 168.93 31.3256 168.96 31.1526C168.99 30.9796 169.064 30.8207 169.173 30.6959C169.282 30.5712 169.421 30.4862 169.573 30.4518C169.724 30.4174 169.881 30.4351 170.023 30.5026C170.166 30.5701 170.287 30.6844 170.373 30.8311C170.459 30.9778 170.505 31.1502 170.505 31.3266C170.505 31.4439 170.485 31.5601 170.446 31.6686C170.407 31.777 170.35 31.8756 170.277 31.9585C170.205 32.0414 170.119 32.1071 170.024 32.1517C169.929 32.1963 169.827 32.2191 169.725 32.2185Z" fill="#5842A3"/>
<path d="M361.04 39.7932C360.886 39.794 360.735 39.7424 360.606 39.6449C360.478 39.5474 360.377 39.4083 360.318 39.2454C360.258 39.0825 360.242 38.9031 360.272 38.7298C360.301 38.5565 360.375 38.3972 360.484 38.272C360.593 38.1469 360.732 38.0615 360.883 38.0268C361.035 37.992 361.192 38.0095 361.334 38.0768C361.477 38.1442 361.599 38.2586 361.685 38.4053C361.771 38.5521 361.817 38.7247 361.817 38.9013C361.817 39.1371 361.735 39.3634 361.59 39.5306C361.444 39.6977 361.247 39.7922 361.04 39.7932Z" fill="#5842A3"/>
<path d="M334.397 269.976C334.243 269.976 334.092 269.924 333.963 269.826C333.835 269.728 333.735 269.588 333.676 269.425C333.617 269.262 333.602 269.082 333.633 268.909C333.663 268.736 333.737 268.577 333.847 268.452C333.956 268.328 334.096 268.243 334.247 268.209C334.399 268.175 334.555 268.194 334.698 268.262C334.84 268.33 334.962 268.445 335.047 268.592C335.132 268.739 335.178 268.912 335.177 269.089C335.176 269.324 335.093 269.55 334.947 269.717C334.801 269.883 334.603 269.976 334.397 269.976Z" fill="#5842A3"/>
<path d="M91.74 199.708C91.74 200.201 92.0891 200.6 92.5197 200.6C92.9504 200.6 93.2995 200.201 93.2995 199.708C93.2995 199.215 92.9504 198.816 92.5197 198.816C92.0891 198.816 91.74 199.215 91.74 199.708Z" fill="#5842A3"/>
<path d="M219.211 66.1948C219.057 66.1948 218.906 66.1425 218.778 66.0445C218.65 65.9465 218.55 65.8072 218.491 65.6442C218.432 65.4813 218.416 65.302 218.447 65.129C218.477 64.9559 218.551 64.797 218.66 64.6723C218.769 64.5475 218.908 64.4626 219.059 64.4282C219.211 64.3938 219.367 64.4114 219.51 64.4789C219.652 64.5464 219.774 64.6608 219.86 64.8074C219.946 64.9541 219.991 65.1266 219.991 65.303C219.991 65.5395 219.909 65.7663 219.763 65.9336C219.617 66.1009 219.418 66.1948 219.211 66.1948Z" fill="#5842A3"/>
<path d="M362.799 371.724C362.645 371.724 362.493 371.673 362.365 371.575C362.236 371.478 362.136 371.339 362.076 371.176C362.016 371.013 362 370.833 362.03 370.66C362.06 370.487 362.134 370.327 362.243 370.202C362.352 370.077 362.491 369.992 362.642 369.957C362.793 369.922 362.95 369.94 363.093 370.007C363.236 370.074 363.358 370.189 363.444 370.336C363.529 370.482 363.575 370.655 363.575 370.832C363.575 371.067 363.494 371.294 363.348 371.461C363.203 371.628 363.005 371.722 362.799 371.724Z" fill="#5842A3"/>
<path d="M326.451 32.2185C326.297 32.2185 326.146 32.1662 326.018 32.0682C325.89 31.9702 325.79 31.8309 325.731 31.6679C325.672 31.5049 325.656 31.3256 325.686 31.1526C325.716 30.9796 325.791 30.8207 325.9 30.6959C326.009 30.5712 326.148 30.4862 326.299 30.4518C326.45 30.4174 326.607 30.4351 326.75 30.5026C326.892 30.5701 327.014 30.6844 327.099 30.8311C327.185 30.9778 327.231 31.1502 327.231 31.3266C327.231 31.4439 327.211 31.5601 327.172 31.6686C327.133 31.777 327.076 31.8756 327.004 31.9585C326.931 32.0414 326.845 32.1071 326.75 32.1517C326.655 32.1963 326.554 32.2191 326.451 32.2185Z" fill="#5842A3"/>
<path d="M314.446 295.27C314.292 295.271 314.141 295.219 314.012 295.121C313.883 295.024 313.783 294.885 313.723 294.722C313.664 294.559 313.648 294.38 313.677 294.206C313.707 294.033 313.781 293.874 313.89 293.749C313.999 293.623 314.138 293.538 314.289 293.503C314.441 293.469 314.598 293.486 314.74 293.553C314.883 293.621 315.005 293.735 315.091 293.882C315.177 294.029 315.222 294.201 315.222 294.378C315.221 294.613 315.14 294.839 314.994 295.006C314.849 295.173 314.652 295.268 314.446 295.27Z" fill="#5842A3"/>
<path d="M95.6349 33.1091C95.4807 33.1091 95.3299 33.0568 95.2017 32.9588C95.0735 32.8608 94.9735 32.7215 94.9145 32.5585C94.8555 32.3955 94.8401 32.2162 94.8702 32.0432C94.9003 31.8702 94.9745 31.7113 95.0836 31.5865C95.1926 31.4618 95.3315 31.3768 95.4828 31.3424C95.634 31.308 95.7908 31.3257 95.9333 31.3932C96.0758 31.4607 96.1975 31.575 96.2832 31.7217C96.3689 31.8683 96.4146 32.0408 96.4146 32.2172C96.4137 32.4534 96.3313 32.6796 96.1852 32.8467C96.0392 33.0137 95.8414 33.108 95.6349 33.1091Z" fill="#5842A3"/>
<path d="M321.595 280.063C321.441 280.063 321.29 280.011 321.162 279.913C321.033 279.815 320.933 279.675 320.874 279.512C320.815 279.349 320.8 279.17 320.83 278.997C320.86 278.824 320.934 278.665 321.043 278.54C321.153 278.416 321.291 278.331 321.443 278.296C321.594 278.262 321.751 278.28 321.893 278.347C322.036 278.415 322.158 278.529 322.243 278.676C322.329 278.822 322.375 278.995 322.375 279.171C322.375 279.408 322.293 279.635 322.146 279.802C322 279.969 321.802 280.063 321.595 280.063Z" fill="#5842A3"/>
<path d="M87.0934 388.516C86.939 388.517 86.7879 388.466 86.6593 388.368C86.5306 388.271 86.4301 388.132 86.3705 387.969C86.311 387.806 86.295 387.626 86.3247 387.453C86.3544 387.28 86.4283 387.12 86.5373 386.995C86.6462 386.87 86.7851 386.785 86.9364 386.75C87.0878 386.715 87.2447 386.733 87.3874 386.8C87.5301 386.868 87.6521 386.982 87.7379 387.129C87.8238 387.275 87.8696 387.448 87.8696 387.625C87.8696 387.86 87.7879 388.087 87.6424 388.254C87.497 388.421 87.2996 388.515 87.0934 388.516Z" fill="#5842A3"/>
<path d="M94.0785 215.442C93.9241 215.443 93.773 215.391 93.6443 215.294C93.5156 215.196 93.4151 215.057 93.3556 214.894C93.296 214.731 93.2801 214.552 93.3098 214.379C93.3394 214.205 93.4134 214.046 93.5223 213.921C93.6312 213.796 93.7702 213.71 93.9215 213.676C94.0729 213.641 94.2298 213.658 94.3725 213.726C94.5152 213.793 94.6372 213.907 94.723 214.054C94.8089 214.201 94.8547 214.374 94.8547 214.55C94.8547 214.786 94.773 215.012 94.6276 215.179C94.4821 215.347 94.2847 215.441 94.0785 215.442Z" fill="#5842A3"/>
<path d="M243.636 413C243.481 413 243.331 412.948 243.203 412.85C243.074 412.752 242.974 412.612 242.915 412.449C242.856 412.286 242.841 412.107 242.871 411.934C242.901 411.761 242.975 411.602 243.084 411.477C243.193 411.353 243.332 411.268 243.484 411.233C243.635 411.199 243.792 411.216 243.934 411.284C244.077 411.351 244.198 411.466 244.284 411.612C244.37 411.759 244.415 411.932 244.415 412.108C244.415 412.225 244.395 412.341 244.356 412.449C244.317 412.558 244.259 412.656 244.187 412.739C244.115 412.821 244.029 412.887 243.934 412.932C243.839 412.977 243.738 413 243.636 413Z" fill="#5842A3"/>
<path d="M3.8771 348.551C3.72286 348.551 3.57207 348.499 3.44382 348.401C3.31558 348.303 3.21562 348.163 3.15659 348C3.09757 347.837 3.08215 347.658 3.11224 347.485C3.14233 347.312 3.21659 347.153 3.32565 347.028C3.43472 346.904 3.57368 346.819 3.72495 346.784C3.87623 346.75 4.03304 346.767 4.17553 346.835C4.31803 346.903 4.43982 347.017 4.52551 347.163C4.6112 347.31 4.65692 347.483 4.65692 347.659C4.65692 347.896 4.57479 348.122 4.42854 348.29C4.28229 348.457 4.08392 348.551 3.8771 348.551Z" fill="#5842A3"/>
<path d="M199.086 21.7356C198.94 21.7876 198.783 21.7888 198.636 21.739C198.489 21.6892 198.358 21.5907 198.26 21.4559C198.162 21.3211 198.101 21.1561 198.085 20.9816C198.068 20.8072 198.098 20.6311 198.169 20.4757C198.24 20.3203 198.35 20.1924 198.484 20.1083C198.619 20.0242 198.772 19.9876 198.925 20.0031C199.078 20.0187 199.223 20.0856 199.343 20.1955C199.462 20.3054 199.551 20.4534 199.597 20.6207C199.658 20.846 199.638 21.0897 199.543 21.2987C199.447 21.5076 199.283 21.6648 199.086 21.7356Z" fill="#5842A3"/>
<path d="M327.461 404.855C327.314 404.906 327.157 404.907 327.01 404.857C326.863 404.806 326.733 404.707 326.635 404.572C326.537 404.437 326.477 404.271 326.461 404.097C326.445 403.922 326.475 403.746 326.547 403.591C326.619 403.436 326.729 403.308 326.864 403.225C326.999 403.141 327.153 403.106 327.306 403.122C327.458 403.138 327.604 403.206 327.723 403.317C327.842 403.428 327.929 403.576 327.975 403.744C328.035 403.969 328.014 404.212 327.918 404.421C327.822 404.629 327.657 404.785 327.461 404.855Z" fill="#5842A3"/>
<path d="M205.682 64.4159C205.332 64.4159 204.989 64.297 204.698 64.0743C204.406 63.8515 204.179 63.5349 204.045 63.1645C203.911 62.7941 203.876 62.3866 203.944 61.9933C204.013 61.6001 204.181 61.2389 204.429 60.9554C204.677 60.6719 204.993 60.4789 205.337 60.4007C205.68 60.3224 206.037 60.3626 206.361 60.516C206.684 60.6694 206.961 60.9292 207.156 61.2626C207.351 61.5959 207.455 61.9879 207.455 62.3888C207.455 62.9264 207.268 63.442 206.936 63.8222C206.603 64.2023 206.152 64.4159 205.682 64.4159Z" fill="#5842A3"/>
<path d="M297.911 280.29C297.561 280.29 297.218 280.171 296.927 279.948C296.635 279.725 296.408 279.409 296.274 279.038C296.14 278.668 296.105 278.26 296.173 277.867C296.242 277.474 296.411 277.113 296.658 276.829C296.906 276.546 297.222 276.353 297.566 276.274C297.91 276.196 298.266 276.236 298.59 276.39C298.913 276.543 299.19 276.803 299.385 277.136C299.58 277.47 299.684 277.862 299.684 278.262C299.684 278.8 299.497 279.316 299.165 279.696C298.832 280.076 298.381 280.29 297.911 280.29Z" fill="#5842A3"/>
<path d="M10.8988 374.854C10.5483 374.854 10.2057 374.736 9.91422 374.513C9.62278 374.29 9.39563 373.974 9.2615 373.603C9.12736 373.233 9.09226 372.825 9.16064 372.432C9.22902 372.039 9.39781 371.678 9.64566 371.394C9.89351 371.111 10.2093 370.918 10.5531 370.839C10.8968 370.761 11.2532 370.801 11.577 370.955C11.9008 371.108 12.1776 371.368 12.3723 371.701C12.5671 372.035 12.671 372.427 12.671 372.827C12.671 373.365 12.4843 373.881 12.1519 374.261C11.8196 374.641 11.3688 374.854 10.8988 374.854Z" fill="#5842A3"/>
<path d="M37.7232 336.512C37.3727 336.512 37.03 336.393 36.7386 336.171C36.4471 335.948 36.22 335.631 36.0858 335.261C35.9517 334.891 35.9166 334.483 35.985 334.09C36.0533 333.696 36.2221 333.335 36.47 333.052C36.7179 332.768 37.0336 332.575 37.3774 332.497C37.7212 332.419 38.0776 332.459 38.4014 332.612C38.7253 332.766 39.0021 333.026 39.1968 333.359C39.3915 333.692 39.4955 334.084 39.4955 334.485C39.4955 335.023 39.3088 335.538 38.9764 335.919C38.644 336.299 38.1932 336.512 37.7232 336.512Z" fill="#5842A3"/>
<path d="M281.093 397.493C280.742 397.493 280.4 397.374 280.108 397.151C279.817 396.928 279.59 396.612 279.456 396.241C279.321 395.871 279.286 395.463 279.355 395.07C279.423 394.677 279.592 394.316 279.84 394.032C280.088 393.749 280.403 393.555 280.747 393.477C281.091 393.399 281.447 393.439 281.771 393.593C282.095 393.746 282.372 394.006 282.566 394.339C282.761 394.673 282.865 395.065 282.865 395.465C282.865 396.003 282.678 396.519 282.346 396.899C282.014 397.279 281.563 397.493 281.093 397.493Z" fill="#5842A3"/>
<path d="M207.441 200.827C207.091 200.827 206.748 200.708 206.456 200.486C206.165 200.263 205.938 199.946 205.804 199.576C205.67 199.205 205.635 198.798 205.703 198.405C205.771 198.011 205.94 197.65 206.188 197.367C206.436 197.083 206.752 196.89 207.095 196.812C207.439 196.734 207.795 196.774 208.119 196.927C208.443 197.081 208.72 197.341 208.914 197.674C209.109 198.007 209.213 198.399 209.213 198.8C209.213 199.338 209.026 199.853 208.694 200.233C208.362 200.614 207.911 200.827 207.441 200.827Z" fill="#5842A3"/>
<path d="M333.231 202.839C332.881 202.839 332.538 202.72 332.247 202.497C331.955 202.274 331.728 201.958 331.594 201.587C331.46 201.217 331.425 200.809 331.493 200.416C331.562 200.023 331.73 199.662 331.978 199.378C332.226 199.095 332.542 198.902 332.886 198.823C333.229 198.745 333.586 198.785 333.91 198.939C334.233 199.092 334.51 199.352 334.705 199.685C334.9 200.019 335.004 200.411 335.004 200.812C335.004 201.349 334.817 201.865 334.485 202.245C334.152 202.625 333.701 202.839 333.231 202.839Z" fill="#5842A3"/>
<path d="M358.503 271.1C358.153 271.1 357.81 270.981 357.519 270.758C357.227 270.535 357 270.219 356.866 269.848C356.732 269.478 356.697 269.07 356.765 268.677C356.834 268.284 357.002 267.923 357.25 267.639C357.498 267.356 357.814 267.163 358.158 267.085C358.501 267.006 358.858 267.047 359.182 267.2C359.505 267.353 359.782 267.613 359.977 267.947C360.172 268.28 360.276 268.672 360.276 269.073C360.276 269.61 360.089 270.126 359.756 270.506C359.424 270.886 358.973 271.1 358.503 271.1Z" fill="#5842A3"/>
<path d="M314.446 168.265C314.095 168.265 313.753 168.146 313.461 167.923C313.17 167.7 312.943 167.384 312.809 167.013C312.674 166.643 312.639 166.235 312.708 165.842C312.776 165.449 312.945 165.088 313.193 164.804C313.441 164.521 313.756 164.328 314.1 164.249C314.444 164.171 314.8 164.211 315.124 164.365C315.448 164.518 315.725 164.778 315.919 165.111C316.114 165.445 316.218 165.837 316.218 166.237C316.218 166.775 316.031 167.291 315.699 167.671C315.367 168.051 314.916 168.265 314.446 168.265Z" fill="#5842A3"/>
<path d="M135.943 204.851C135.592 204.851 135.249 204.732 134.958 204.509C134.667 204.286 134.44 203.97 134.305 203.599C134.171 203.229 134.136 202.821 134.205 202.428C134.273 202.035 134.442 201.674 134.69 201.39C134.937 201.107 135.253 200.914 135.597 200.835C135.941 200.757 136.297 200.797 136.621 200.951C136.945 201.104 137.221 201.364 137.416 201.697C137.611 202.031 137.715 202.423 137.715 202.824C137.715 203.361 137.528 203.877 137.196 204.257C136.863 204.637 136.413 204.851 135.943 204.851Z" fill="#5842A3"/>
<path d="M217.453 31.3252C217.102 31.3252 216.76 31.2063 216.468 30.9835C216.177 30.7608 215.95 30.4442 215.816 30.0738C215.682 29.7034 215.647 29.2958 215.715 28.9026C215.783 28.5094 215.952 28.1482 216.2 27.8647C216.448 27.5812 216.763 27.3881 217.107 27.3099C217.451 27.2317 217.807 27.2718 218.131 27.4252C218.455 27.5787 218.732 27.8385 218.926 28.1718C219.121 28.5052 219.225 28.8971 219.225 29.298C219.225 29.8357 219.038 30.3513 218.706 30.7314C218.374 31.1116 217.923 31.3252 217.453 31.3252Z" fill="#5842A3"/>
<path d="M323.353 62.4039C323.003 62.4039 322.66 62.285 322.369 62.0622C322.077 61.8395 321.85 61.5229 321.716 61.1525C321.582 60.7821 321.547 60.3745 321.615 59.9813C321.683 59.5881 321.852 59.2269 322.1 58.9434C322.348 58.6599 322.664 58.4668 323.007 58.3886C323.351 58.3104 323.708 58.3505 324.031 58.504C324.355 58.6574 324.632 58.9172 324.827 59.2506C325.021 59.5839 325.125 59.9758 325.125 60.3768C325.125 60.9144 324.939 61.43 324.606 61.8101C324.274 62.1903 323.823 62.4039 323.353 62.4039Z" fill="#5842A3"/>
<path d="M320.826 260.392C320.475 260.392 320.133 260.274 319.841 260.051C319.55 259.828 319.323 259.512 319.189 259.141C319.054 258.771 319.019 258.363 319.088 257.97C319.156 257.577 319.325 257.216 319.573 256.932C319.821 256.649 320.136 256.455 320.48 256.377C320.824 256.299 321.18 256.339 321.504 256.493C321.828 256.646 322.105 256.906 322.299 257.239C322.494 257.573 322.598 257.964 322.598 258.365C322.598 258.903 322.411 259.419 322.079 259.799C321.747 260.179 321.296 260.392 320.826 260.392Z" fill="#5842A3"/>
<path d="M228.763 94.7725C230.759 94.7725 232.674 93.8666 234.087 92.2537C235.499 90.6408 236.295 88.4526 236.299 86.1695C236.299 88.4555 237.093 90.6478 238.506 92.2642C239.919 93.8806 241.836 94.7887 243.834 94.7887C241.836 94.7887 239.919 95.6968 238.506 97.3132C237.093 98.9296 236.299 101.122 236.299 103.408C236.301 102.275 236.107 101.152 235.729 100.104C235.351 99.0569 234.797 98.1048 234.097 97.3027C233.397 96.5006 232.565 95.8643 231.65 95.4301C230.735 94.996 229.754 94.7725 228.763 94.7725Z" fill="#5842A3"/>
<path d="M10.8983 209.451C11.8882 209.451 12.8684 209.228 13.7828 208.795C14.6973 208.361 15.5282 207.726 16.2279 206.925C16.9277 206.124 17.4827 205.174 17.8612 204.127C18.2397 203.081 18.4342 201.96 18.4338 200.828C18.4333 201.96 18.6279 203.081 19.0064 204.127C19.3849 205.174 19.9398 206.124 20.6396 206.925C21.3394 207.726 22.1702 208.361 23.0847 208.795C23.9992 209.228 24.9794 209.451 25.9692 209.451C23.9707 209.451 22.054 210.359 20.6409 211.976C19.2277 213.592 18.4338 215.784 18.4338 218.07C18.4338 215.784 17.6399 213.592 16.2267 211.976C14.8135 210.359 12.8968 209.451 10.8983 209.451Z" fill="#5842A3"/>
<path d="M340.882 396.057C330.337 389.173 322.432 384.887 312.739 377.426C313.812 374.859 331.679 383.957 331.195 380.901C330.556 376.862 320.996 366.264 304.459 361.237C298.894 359.545 294.26 359.214 290.244 359.066C287.635 356.797 285.058 354.509 282.585 352.142C280.112 349.776 277.571 347.542 275.115 345.221C279.114 345.409 283.74 346.055 282.866 342.3C281.564 336.723 262.663 324.87 240.889 306.35C236.732 301.382 226.665 290.117 222.79 285.159C202.243 258.604 191.696 240.67 179.319 216.205C176.055 209.844 173.042 203.617 170.28 197.523C166.533 198.858 162.774 200.225 159.002 201.624L159.462 202.921C161.715 209.111 164.493 215.336 167.144 221.891C178.353 247.779 179.332 281.139 199.568 309.624C204.641 316.731 210.144 323.763 215.67 330.976C217.204 332.808 218.768 334.674 220.317 336.526C231.599 363.817 259.814 388.948 269.414 395.09C287.729 406.814 281.249 391.104 301.723 402.913C307.214 406.08 312.171 410.307 315 413.5C324.5 410 336.5 400.5 340 397C341 396 340.5 396.5 340.882 396.057Z" fill="#5842A3"/>
<path d="M154.957 249.159L159.318 261.61L218.298 240.992L213.937 228.541L154.957 249.159Z" fill="#EC4100"/>
<path d="M188.556 107.816L226.403 228.708L145.257 257.069L99.4319 138.969C91.1544 117.489 90.2465 93.253 97.2845 68.8555C97.6052 67.6073 98.0473 66.315 98.4324 65.0451L110.444 27.488L143.27 49.3714L146.545 51.6363C167.209 66.3504 181.687 85.8369 188.556 107.816Z" fill="#F2F2F2"/>
<path d="M146.546 51.6361C138.657 55.3403 130.582 58.6358 122.354 61.5095C114.129 64.3876 105.761 66.8389 97.2822 68.8535C97.6029 67.6053 98.0451 66.313 98.4301 65.0431L110.444 27.4878L143.271 49.3712L146.546 51.6361Z" fill="#5842A3"/>
<path d="M154.301 111.519C158.953 112.623 163.174 115.081 166.43 118.582C169.686 122.084 171.831 126.472 172.593 131.191C173.355 135.91 172.7 140.748 170.711 145.094C168.722 149.439 165.489 153.096 161.419 155.603C157.35 158.11 152.628 159.353 147.85 159.176C143.072 158.999 138.454 157.41 134.578 154.608C130.703 151.807 127.745 147.92 126.078 143.439C124.412 138.959 124.112 134.085 125.216 129.435C126.699 123.205 130.594 117.818 136.048 114.459C141.501 111.1 148.066 110.042 154.301 111.519Z" fill="#5842A3"/>
<path d="M147.289 112.504C143.062 112.769 138.995 114.217 135.553 116.681L134.967 117.114C132.471 119.039 130.406 121.464 128.905 124.235L133.862 126.931C134.977 124.882 136.503 123.084 138.346 121.653L138.934 121.217C141.5 119.396 144.524 118.326 147.665 118.128L147.289 112.504Z" fill="white"/>
<path d="M153.952 156.982C154.245 156.913 154.536 156.836 154.826 156.754L155.526 156.549C159.843 155.185 163.65 152.555 166.451 149L163.083 146.345C160.828 149.206 157.769 151.328 154.299 152.439L153.592 152.655L152.953 152.82L153.952 156.982Z" fill="white"/>
<path d="M147.871 244.727C156.905 270.523 163.807 291.586 156.293 294.212C148.78 296.839 129.703 280.034 120.677 254.243C111.651 228.453 116.061 203.428 123.576 200.794C131.09 198.16 138.839 218.932 147.871 244.727Z" fill="#5842A3"/>
<path d="M216.713 220.663C225.747 246.459 233.499 267.221 241.013 264.595C248.527 261.969 252.952 236.95 243.918 211.153C234.884 185.357 215.815 168.558 208.302 171.184C200.788 173.811 207.681 194.868 216.713 220.663Z" fill="#5842A3"/>
<path d="M172.158 140.687C173.261 136.041 172.961 131.172 171.296 126.695C169.63 122.218 166.675 118.334 162.802 115.536C158.93 112.737 154.315 111.149 149.541 110.973C144.768 110.796 140.049 112.039 135.984 114.544C131.918 117.048 128.687 120.703 126.7 125.045C124.713 129.387 124.058 134.221 124.82 138.936C125.581 143.651 127.724 148.035 130.978 151.534C134.231 155.032 138.449 157.488 143.097 158.591C149.327 160.061 155.885 159.002 161.332 155.646C166.78 152.29 170.673 146.911 172.158 140.687ZM156.131 103.685C162.346 105.162 167.983 108.45 172.331 113.13C176.679 117.811 179.541 123.675 180.555 129.98C181.57 136.285 180.691 142.749 178.031 148.553C175.37 154.357 171.047 159.241 165.608 162.587C160.169 165.932 153.859 167.59 147.476 167.349C141.093 167.108 134.924 164.981 129.748 161.235C124.573 157.489 120.625 152.293 118.403 146.305C116.18 140.317 115.784 133.806 117.264 127.594C119.255 119.276 124.464 112.088 131.75 107.606C139.036 103.124 147.803 101.714 156.131 103.685Z" fill="#EC4100"/>
</svg>
