<svg width="375" height="347" viewBox="0 0 375 347" fill="none" xmlns="http://www.w3.org/2000/svg">
<g opacity="0.1">
<path d="M-42.8387 172.343C-64.3345 288.878 52.4809 381.507 161.436 297.103C352.043 149.467 257.686 207.686 360.032 224.907C462.378 242.129 471.553 70.2354 389.388 72.4524C307.223 74.6693 281.973 143.17 196.118 80.0671C110.263 16.9645 -24.9041 75.2477 -42.8387 172.343Z" fill="#7941FF" style="mix-blend-mode:multiply"/>
</g>
<path d="M180.038 346.851C253.2 346.851 312.51 287.455 312.51 214.187C312.51 140.919 253.2 81.5241 180.038 81.5241C106.876 81.5241 47.5659 140.919 47.5659 214.187C47.5659 287.455 106.876 346.851 180.038 346.851Z" fill="#7941FF"/>
<path d="M32.9418 185.484C43.8568 185.484 52.7051 176.623 52.7051 165.693C52.7051 154.762 43.8568 145.901 32.9418 145.901C22.0268 145.901 13.1785 154.762 13.1785 165.693C13.1785 176.623 22.0268 185.484 32.9418 185.484Z" fill="#EC4100"/>
<path d="M45.2938 130.093C51.0703 130.093 55.753 125.403 55.753 119.619C55.753 113.834 51.0703 109.144 45.2938 109.144C39.5174 109.144 34.8347 113.834 34.8347 119.619C34.8347 125.403 39.5174 130.093 45.2938 130.093Z" fill="#FFBA00"/>
<path d="M70.4647 157.94C72.3784 157.94 73.9297 156.386 73.9297 154.47C73.9297 152.554 72.3784 151 70.4647 151C68.5511 151 66.9998 152.554 66.9998 154.47C66.9998 156.386 68.5511 157.94 70.4647 157.94Z" fill="#EC4100"/>
<path d="M336.097 19.7918C336.097 30.7159 327.242 44.8208 316.334 44.8208C305.426 44.8208 296.571 30.7159 296.571 19.7918C296.571 8.86778 305.393 0 316.334 0C327.274 0 336.097 8.86778 336.097 19.7918Z" fill="#FFBA00"/>
<path d="M316.825 53.7851C314.843 53.7851 312.987 52.3714 311.35 49.5761C310.186 47.5841 311.067 41.5758 312.011 35.2142C312.263 33.5434 312.483 31.9048 312.703 30.4269C311.319 26.0251 311.634 23.1656 312.231 22.3302C312.452 22.0089 312.766 21.9125 313.05 22.041C313.616 22.3302 313.931 23.5511 313.931 25.511C313.931 26.7962 313.773 28.4348 313.553 30.2662C313.647 30.5875 313.773 30.9088 313.899 31.2622C315.032 34.3467 316.165 33.672 316.542 33.4149C317.455 32.8687 318.336 31.3265 318.997 29.5594C318.745 25.5753 319.028 22.7158 319.469 21.8804C319.689 21.4306 319.972 21.3984 320.098 21.3984C320.538 21.4306 320.759 22.041 320.822 22.2338C321.388 23.776 320.885 27.0211 319.846 29.7843C320.161 34.4431 321.231 40.8369 323.874 47.552L324 47.8411L323.842 48.0982C323.717 48.3231 320.79 53.6245 316.92 53.6887C316.888 53.7851 316.857 53.7851 316.825 53.7851ZM313.27 32.1297C313.112 33.19 312.955 34.2824 312.798 35.407C311.98 40.9975 311.036 47.2949 311.98 48.9014C313.49 51.4396 315.126 52.7248 316.857 52.6927C319.846 52.6284 322.332 48.8371 322.961 47.809C320.664 41.8971 319.532 36.1138 319.091 31.4871C318.43 32.8366 317.644 33.929 316.825 34.4109C316.07 34.925 314.56 35.2463 313.27 32.1297ZM312.766 23.1334C312.546 23.5511 312.263 25.254 312.924 28.1778C313.018 27.1818 313.081 26.2821 313.081 25.5432C313.081 24.0331 312.861 23.3583 312.766 23.1334ZM320.035 22.7479C319.846 23.3905 319.657 24.997 319.689 27.3103C320.192 25.4468 320.381 23.6475 320.035 22.7479Z" fill="white"/>
<path d="M316.334 56.4839C312.356 56.4839 309.051 53.4637 308.731 49.5118L308.057 41.9292L310.078 42.7003C314.217 44.2747 318.773 44.2425 322.879 42.6039L324.58 41.9292L323.906 49.5118C323.585 53.4637 320.28 56.4839 316.334 56.4839Z" fill="#EC4100"/>
<path d="M321.146 89.0312C321.531 93.4651 318.483 99.5055 314.056 99.891C309.628 100.277 305.522 94.9109 305.137 90.4771C304.752 86.0432 307.992 82.1233 312.42 81.7378C316.847 81.3522 320.729 84.5973 321.146 89.0312Z" fill="#FFBA00"/>
<path d="M314.601 103.489C313.767 103.554 312.965 103.072 312.195 101.979C311.65 101.208 311.778 98.7343 311.939 96.1318C311.971 95.4571 312.003 94.7824 312.035 94.1719C311.297 92.4369 311.329 91.2802 311.554 90.9268C311.65 90.7983 311.746 90.734 311.874 90.7662C312.131 90.8625 312.291 91.3445 312.356 92.1477C312.388 92.6618 312.388 93.3365 312.356 94.1076C312.42 94.2362 312.484 94.3647 312.548 94.4932C313.126 95.7141 313.575 95.3928 313.703 95.2643C314.056 95.0073 314.377 94.3647 314.569 93.6257C314.313 92.0192 314.345 90.8625 314.473 90.5091C314.537 90.3163 314.666 90.2842 314.73 90.2842C314.922 90.2842 315.019 90.5091 315.051 90.6055C315.339 91.216 315.243 92.5333 314.922 93.7221C315.211 95.5856 315.885 98.156 317.232 100.758L317.296 100.887L317.232 101.016C317.2 101.112 316.173 103.361 314.569 103.554C314.634 103.489 314.634 103.489 314.601 103.489ZM312.356 94.8466C312.324 95.2643 312.291 95.7462 312.291 96.1961C312.163 98.4773 312.003 101.08 312.452 101.69C313.158 102.654 313.896 103.136 314.601 103.04C315.821 102.911 316.719 101.273 316.943 100.823C315.788 98.5094 315.115 96.1961 314.73 94.3325C314.505 94.9109 314.216 95.3607 313.896 95.6177C313.607 95.8748 312.997 96.0675 312.356 94.8466ZM311.81 91.216C311.714 91.4087 311.682 92.1156 312.067 93.2401C312.067 92.8225 312.067 92.469 312.035 92.1799C311.971 91.5694 311.874 91.3124 311.81 91.216ZM314.826 90.7983C314.762 91.0553 314.762 91.73 314.858 92.6618C314.986 91.8907 314.986 91.1517 314.826 90.7983Z" fill="white"/>
<path d="M314.473 104.614C312.869 104.775 311.425 103.65 311.136 102.076L310.591 99.0236L311.425 99.2485C313.158 99.7304 315.018 99.5377 316.623 98.7344L317.296 98.381V101.465C317.296 103.136 316.077 104.486 314.473 104.614Z" fill="#EC4100"/>
<path d="M135.37 121.976C135.37 121.976 132.47 98.6216 139.777 87.9628C149.316 74.0953 176.372 70.2168 189.286 77.8621C203.566 86.3166 214.946 108.136 209.954 127.25C231.18 133.36 236.256 157.496 221.334 163.69L234.108 191.063C242.058 208.083 233.941 228.424 215.7 237.214L183.038 252.951C183.038 252.951 122.763 262.438 110.825 234.507C98.8876 206.577 122.261 186.208 122.261 186.208C122.261 186.208 103.183 165.002 112.276 144.326C121.397 123.65 135.37 121.976 135.37 121.976Z" fill="#00AD73"/>
<path d="M228.056 202.001C228.056 202.001 282.836 210.678 297.674 210.037C309.305 210.678 328.467 146.977 330.141 143.07C339.429 137.239 341.744 129.259 341.604 124.85C341.465 120.442 329.611 116.73 328.467 118.963C330.42 113.131 330.866 111.289 331.396 109.28C332.512 105.123 329.332 101.97 324.786 117.623C320.295 133.053 320.741 130.514 319.653 135.955C312.318 150.046 293.407 182.915 292.124 187.882C267.607 187.296 226.076 177.753 226.076 177.753L228.056 202.001Z" fill="#F2F2F2"/>
<path d="M118.356 187.128C118.356 187.128 92.3887 235.874 87.3402 249.491C82.3197 259.619 134.478 306.272 137.406 309.649C139.219 320.726 144.017 324.549 148.089 326.53C152.161 328.483 160.055 319.638 158.465 317.573C163.067 322.093 164.573 323.349 166.191 324.8C169.566 327.757 173.666 326.418 161.087 314.922C148.675 303.566 150.85 305.184 146.276 301.613C136.179 288.359 113.308 255.825 109.263 252.309C119.109 230.628 143.654 197.899 143.654 197.899L118.356 187.128Z" fill="#F2F2F2"/>
<path d="M187 346L192.995 283.671L218.795 299.129C218.795 299.129 220.822 314.974 223.5 339.5C223.5 339.5 212.521 346.474 187 346Z" fill="#00724C"/>
<path d="M204 345C208.128 320.055 211.292 302.366 211.292 302.366C211.292 302.366 140.698 292.544 140.447 311.853C140.363 317.768 141.06 329.153 142.706 342.155C175 350.5 204 345 204 345Z" fill="#00AD73"/>
<path d="M204.404 220.249C202.312 225.104 218.182 292.516 220.832 308.058C220.832 308.058 220.497 308.002 219.856 307.891C212.967 306.858 170.822 301.306 136.765 315.508L133.642 220.277L133.502 216.733C133.502 216.733 133.502 213.134 133.837 207.637V207.581C134.618 196.253 136.961 177.139 144.241 164.862C148.006 158.5 152.999 153.952 159.832 153.283C181.002 151.19 180.891 159.868 200.555 164.723L232.463 172.647C232.463 172.647 228.893 197.397 232.463 204.763H210.317C210.317 204.735 206.468 215.338 204.404 220.249Z" fill="#FFBA00"/>
<path d="M192.243 89.7486C192.243 89.7486 211.656 118.879 201.475 133.109C193.861 143.768 181.086 149.348 181.086 149.348V164.695C181.086 164.695 179.552 166.062 176.874 166.202C172.216 166.453 159.832 158.975 159.832 158.975V98.5379L192.243 89.7486Z" fill="#F2F2F2"/>
<path d="M133.585 224.183C133.585 224.183 162.872 190.226 158.214 173.875C153.556 157.524 131.41 163.132 119.026 181.967C106.642 200.801 101.733 207.246 101.733 207.246C101.733 207.246 114.479 224.49 133.585 224.183Z" fill="#FFBA00"/>
<path d="M192.187 86.9862C192.187 86.9862 193.693 117.316 179.077 124.655C164.462 131.993 175.507 150.074 161.589 163.579C157.461 167.569 151.325 166.899 146.611 165.504C139.861 163.495 132.135 164.946 127.421 169.829C126.975 170.303 126.557 170.805 126.222 171.308C108.148 159.365 153.947 92.9853 153.947 92.9853L192.187 86.9862Z" fill="#00AD73"/>
</svg>
